PathFileType	4	(X/Y/Z)	51_1_30_p1_0-477.trc
DataRate	CameraRate	NumFrames	NumMarkers	Units	OrigDataRate	OrigDataStartFrame	OrigNumFrames
60.0	60.0	5	27	m	60.0	59	478
Frame#	Time	RHip			RKnee			RAnkle			RBigToe			RSmallToe			RHeel			LHip			LKnee			LAnkle			LBigToe			LSmallToe			LHeel			Neck			Head			Nose			RShoulder			RElbow			RWrist			RThumb			RIndex			RPinky			LShoulder			LElbow			LWrist			LThumb			LIndex			LPinky			
		X1	Y1	Z1	X2	Y2	Z2	X3	Y3	Z3	X4	Y4	Z4	X5	Y5	Z5	X6	Y6	Z6	X7	Y7	Z7	X8	Y8	Z8	X9	Y9	Z9	X10	Y10	Z10	X11	Y11	Z11	X12	Y12	Z12	X13	Y13	Z13	X14	Y14	Z14	X15	Y15	Z15	X16	Y16	Z16	X17	Y17	Z17	X18	Y18	Z18	X19	Y19	Z19	X20	Y20	Z20	X21	Y21	Z21	X22	Y22	Z22	X23	Y23	Z23	X24	Y24	Z24	X25	Y25	Z25	X26	Y26	Z26	X27	Y27	Z27	
59	0.9833333333333333	0.09463486984739519	0.5543613209830778	0.6309622003667948	0.09732437372562218	0.6053619140519373	1.0482868415566857	0.07387833970114929	0.6751756086860223	1.4690491995495678	0.05336409139519015	0.48661403292559136	1.4904933543432137	0.11909437925550447	0.48279769684305	1.4876991248183664	0.04073558736890186	0.7809433480466506	1.5348765020466206	-0.10176342635663257	0.5391937791564507	0.6304415807268344	-0.10599139161549308	0.5948036235009112	1.0445416410115747	-0.1131954574698702	0.6477017469683269	1.4467380534877923	-0.10220487528942067	0.4686047274391772	1.475166152379359	-0.15469010477764858	0.4982291232688714	1.4859712063512975	-0.11005289514421657	0.7156010443497488	1.5212945774890765	-0.0011031130571689807	0.48537739693915277	0.10415050008815084	0.001982131557425639	0.3644644413733011	-0.12981621736693955	-0.01929695665415545	0.33082533314790064	0.02307890070623656	0.1566135795655092	0.47546899026425576	0.16255266647335997	0.22531403185613355	0.48338009649613567	0.4234247455671537	0.07670486861045844	0.3451778579857976	0.5006166192185436	-0.015655710476114384	0.317969406303176	0.5250460374245075	-0.022603598659894388	0.3152706030334249	0.5474162513450647	0.009576381198185635	0.3172712610255645	0.5656032280965138	-0.14113575475116094	0.4984178050759072	0.16945548797967314	-0.17553583327817976	0.42804745036350017	0.3998804430894658	-0.10630772894649833	0.2930467120504359	0.5770025078678681	-0.03213616447403079	0.20542744617593037	0.616429676198048	-0.03938187073290586	0.22392269599505155	0.6441171006407553	-0.0690868955201365	0.22445103037604433	0.6531343236203776
60	1.0	0.09900231888846922	0.5557286973673277	0.6307428498007288	0.09189555445394017	0.6191088969183415	1.0485776485347884	0.07368337721889795	0.6751570731367756	1.4690382813758844	0.05017638419602893	0.47355411416806503	1.4839657720170907	0.11589207425174503	0.4694286044577739	1.481292445299927	0.04054600581885096	0.7808527567434497	1.5349122669967905	-0.09617430186619161	0.5247403098410544	0.6271432234633255	-0.10611887684700878	0.5948365134132457	1.0444316840735517	-0.11432886712451286	0.6477340416435543	1.4513042071350641	-0.09449760685635504	0.4663292439583603	1.4785329500838875	-0.14996477417246099	0.4997127230769672	1.4862928038837204	-0.11001610376454549	0.7153136842281357	1.5214975694115325	-0.0010314379364739854	0.4854818621293492	0.10389864783733832	-0.0017442182218392107	0.3615440295941618	-0.12623209937700589	-0.01935620580982867	0.3306848313021004	0.023060246715899922	0.15659533064424638	0.47550594280984526	0.16248935579064502	0.22086670831186958	0.48404551230572274	0.4204302472666662	0.07653954352303748	0.3444016174344416	0.49262689839778445	-0.028191245498766542	0.33839511261593835	0.5018053410270139	-0.02792686557226848	0.3125767619021621	0.5272206575801293	-0.0005053670196998095	0.3179149437647131	0.5599788863409749	-0.14110051061304527	0.4983033383541608	0.16949202406425987	-0.17742001052262066	0.41681474214833325	0.4024535231481268	-0.10346321975503463	0.26862652608740534	0.5720805783321633	-0.0270413481725779	0.20662848567603825	0.6215042580965091	-0.044065981274162384	0.2215095537364744	0.6440711056906229	-0.06944743044499155	0.2231087279511789	0.6524869263542711
61	1.0166666666666666	0.09798420225745125	0.5542931137780871	0.6301143138932378	0.09185541948524631	0.6192939913526051	1.048820134072249	0.07378415059369903	0.6751020027076745	1.4690500292607274	0.05411299205283577	0.4887244753094856	1.4955142180540921	0.11987547629698672	0.48463574867478626	1.4928289980106475	0.04078929394706719	0.7807959628750734	1.5348887543016998	-0.09876019300636223	0.5069935470757404	0.6149645349619643	-0.1061740971788743	0.5947032575555132	1.0443195224153583	-0.1142534413200823	0.6478259124975827	1.451342625682185	-0.09929209676555077	0.46473356358668516	1.478196444558996	-0.1500551870638919	0.4998925841099035	1.4863821578796976	-0.10988293128846112	0.7152227099378867	1.5209907629517558	0.0036616452863714797	0.472068487484676	0.10335517824953482	-0.0017882653997525887	0.36151047901606737	-0.1262978459293457	-0.0194241165324204	0.3307173159440862	0.023056439596386147	0.1565783420431824	0.47543628412030614	0.16246991009729628	0.22181545668798006	0.49775731068829326	0.41923459482978714	0.07194784246826433	0.3414573842754851	0.48102148799787686	-0.029062888382101096	0.33384563818567625	0.486527412147318	-0.02725418064084201	0.31268332153846606	0.510862916660379	-0.003563153133182798	0.3065186666179475	0.5510206150659112	-0.1411034739217262	0.49824663210646547	0.16945591740480842	-0.17748804437260485	0.41657745988943456	0.4022703366250419	-0.10358088256467018	0.26881392194271586	0.5723313817529598	-0.027372319280000366	0.20823387012262562	0.628010558563639	-0.044011944419216575	0.2212521423804706	0.6476647804047201	-0.07556934336784062	0.2090436663612959	0.6525550475721322
62	1.0333333333333334	0.09101517408504244	0.541359400031627	0.631919818358351	0.09171206197526954	0.6189883739447317	1.0493821980005174	0.07373369151878624	0.6746862594541942	1.4686989643175792	0.053163847297302065	0.48613752295962703	1.4901429938486974	0.11912205842173695	0.4829318681850845	1.487580574880872	0.04047382638178881	0.7797516711361094	1.5342149277001913	-0.09864368350896431	0.5079369028952294	0.615220880148743	-0.10603402665247683	0.5933516944573868	1.0480687646061138	-0.11452584406767771	0.6475104844983498	1.4509708297503991	-0.10240156160265479	0.45024713083405427	1.4752235875157431	-0.15472134314040653	0.49818414465082544	1.486087653650971	-0.11008585660374075	0.7150470983035521	1.5207374230904305	-0.0008022471006365187	0.48679259435037536	0.10770724877122975	-0.001841970973178608	0.36192190603441365	-0.12968115235672395	-0.023201278133278883	0.32838727890544006	0.02307119329934995	0.15700407388378135	0.47696817631368366	0.1658904992391307	0.2220708139376598	0.497901457830704	0.4164307555585334	0.07609557780411198	0.34315070158220096	0.473305838260528	-0.029650444889358446	0.3314099693317013	0.4712290896617118	-0.03451177900496496	0.3092063995827981	0.4874580861277115	-0.0036854996140328047	0.30676649521556615	0.5304159518186133	-0.14116786670688478	0.4966764843331153	0.16559596198322735	-0.18097370590255318	0.4144772571197393	0.40214939315771087	-0.10625444532698154	0.2937042680623298	0.5810603457887861	-0.02915329499385161	0.19652507832670305	0.6256231853266935	-0.04785809218801781	0.20454168723285002	0.6467953963546417	-0.07594064314291486	0.20927901943392344	0.6519644885355838
63	1.05	0.09041883436542733	0.5395090257274078	0.6279444162489455	0.09169020863617902	0.6190919595394745	1.0496186348490422	0.07382154722333942	0.6748509635706988	1.4688401739163843	0.05022152796679986	0.4733250044667086	1.4838165356275983	0.11604215252626691	0.46930315255055266	1.481138203688636	0.04068757502247579	0.7806734567651111	1.5347023877251125	-0.09878910167259199	0.5075858070855216	0.6151715083801732	-0.10598879386311254	0.5935857163815218	1.0481196565754403	-0.11448884884812921	0.6474134387507888	1.4509039977512905	-0.10242076696381595	0.4503306262777372	1.475155914802548	-0.15469125505566117	0.4980190584038929	1.4859880405035184	-0.11005610761842158	0.7152596324103483	1.5213959242241935	0.003879433004945433	0.4734205676630438	0.10728089004070554	-0.0018813295482640574	0.361478549189318	-0.12613614420571395	-0.023240144475020923	0.32840288749477686	0.02323967997854305	0.15695718234555037	0.47702767298392745	0.16597915655630255	0.2219577800410756	0.49764036605470774	0.41632217533213045	0.07159886624039545	0.3400381398979343	0.4690502053274548	-0.03263230688773315	0.3202982112519948	0.465404075898278	-0.03946816894056031	0.2875780809576201	0.4768901077156127	-0.008359891714654863	0.3183853067363897	0.519287041488135	-0.1411502281763363	0.49651962107874736	0.16557210373178974	-0.18099348679698546	0.4145052858329538	0.40203320729552017	-0.10850251407227164	0.2808448568144483	0.5747902972385613	-0.029739746449521084	0.19627489731578365	0.6256385779158968	-0.057844251203255266	0.17892863749506127	0.6415386140045024	-0.07679164808282833	0.2084924201903714	0.6486680596190267
